<!DOCTYPE svg PUBLIC "-//W3C//DTD SVG 1.1//EN" "http://www.w3.org/Graphics/SVG/1.1/DTD/svg11.dtd">
<!-- Uploaded to: SVG Repo, www.svgrepo.com, Transformed by: SVG Repo Mixer Tools -->
<svg fill="#ed3535" width="178px" height="178px" viewBox="-2.4 -2.4 28.80 28.80" role="img" xmlns="http://www.w3.org/2000/svg" stroke="#ed3535">
<g id="SVGRepo_bgCarrier" stroke-width="0"/>
<g id="SVGRepo_tracerCarrier" stroke-linecap="round" stroke-linejoin="round" stroke="#CCCCCC" stroke-width="0.43200000000000005">
<title>CakePHP icon</title>
<path d="M0 13.875v3.745c0 2.067 5.37 3.743 12 3.743V17.62c-6.63 0-12-1.68-12-3.743v-.002zm21.384 2.333L12 13.875v3.745l9.384 2.333C23.02 19.313 24 18.503 24 17.62v-3.745c0 .882-.98 1.692-2.616 2.333zM12 10.133v3.742c-6.627 0-12-1.677-12-3.744V6.38c0-2.064 5.37-3.743 12-3.743 6.625 0 12 1.68 12 3.744v3.75c0 .883-.98 1.69-2.616 2.334L12 10.13v.003z"/>
</g>
<g id="SVGRepo_iconCarrier">
<title>CakePHP icon</title>
<path d="M0 13.875v3.745c0 2.067 5.37 3.743 12 3.743V17.62c-6.63 0-12-1.68-12-3.743v-.002zm21.384 2.333L12 13.875v3.745l9.384 2.333C23.02 19.313 24 18.503 24 17.62v-3.745c0 .882-.98 1.692-2.616 2.333zM12 10.133v3.742c-6.627 0-12-1.677-12-3.744V6.38c0-2.064 5.37-3.743 12-3.743 6.625 0 12 1.68 12 3.744v3.75c0 .883-.98 1.69-2.616 2.334L12 10.13v.003z"/>
</g>
</svg>